<?xml version="1.0" encoding="utf-8"?>
<!DOCTYPE svg PUBLIC "-//W3C//DTD SVG 1.1//EN" "http://www.w3.org/Graphics/SVG/1.1/DTD/svg11.dtd">
<svg version="1.1" id="Layer_1" xmlns="http://www.w3.org/2000/svg" xmlns:xlink="http://www.w3.org/1999/xlink" x="0px" y="0px"
	 width="720px" height="495px" viewBox="0 0 720 495" enable-background="new 0 0 720 495" xml:space="preserve">
<g>
	<polygon fill="#78C60D" stroke="#231F20" stroke-width="2" stroke-linejoin="bevel" stroke-miterlimit="10" points="
		250.583,231.281 180,180 223.623,314.257 	"/>
	<polygon fill="#E6ECFF" stroke="#231F20" stroke-width="2" stroke-linejoin="bevel" stroke-miterlimit="10" points="
		136.376,314.257 223.623,314.257 180,180 109.416,231.281 	"/>
	<polygon fill="#E6ECFF" stroke="#231F20" stroke-width="2" stroke-linejoin="bevel" stroke-miterlimit="10" points="
		496.376,314.257 583.623,314.257 469.416,231.281 	"/>
	<polygon fill="#78C60D" stroke="#231F20" stroke-width="2" stroke-linejoin="bevel" stroke-miterlimit="10" points="
		583.623,314.257 540,180 469.416,231.281 	"/>
	<polygon fill="#E6ECFF" stroke="#231F20" stroke-width="2" stroke-linejoin="bevel" stroke-miterlimit="10" points="
		610.583,231.281 540,180 583.623,314.257 	"/>
	<polygon fill="#E6ECFF" stroke="#231F20" stroke-width="2" stroke-linejoin="bevel" stroke-miterlimit="10" points="
		316.376,314.257 403.623,314.257 430.583,231.281 360,180 289.416,231.281 	"/>
	<polygon fill="#78C60D" stroke="#231F20" stroke-width="2" stroke-linejoin="bevel" stroke-miterlimit="10" points="90,18
		19.416,69.281 160.583,69.281 	"/>
	<polygon fill="#E6ECFF" stroke="#231F20" stroke-width="2" stroke-linejoin="bevel" stroke-miterlimit="10" points="
		133.623,152.257 160.583,69.281 19.416,69.281 46.376,152.257 	"/>
	<polygon fill="#78C60D" stroke="#231F20" stroke-width="2" stroke-linejoin="bevel" stroke-miterlimit="10" points="
		700.583,69.281 559.416,69.281 586.376,152.257 	"/>
	<polygon fill="#E6ECFF" stroke="#231F20" stroke-width="2" stroke-linejoin="bevel" stroke-miterlimit="10" points="
		673.623,152.257 700.583,69.281 586.376,152.257 	"/>
	<polygon fill="#E6ECFF" stroke="#231F20" stroke-width="2" stroke-linejoin="bevel" stroke-miterlimit="10" points="630,18
		559.416,69.281 700.583,69.281 	"/>
	<polygon fill="#E6ECFF" stroke="#231F20" stroke-width="2" stroke-linejoin="bevel" stroke-miterlimit="10" points="
		520.583,69.281 450,18 493.623,152.257 	"/>
	<polygon fill="#78C60D" stroke="#231F20" stroke-width="2" stroke-linejoin="bevel" stroke-miterlimit="10" points="
		493.623,152.257 450,18 406.376,152.257 	"/>
	<polygon fill="#E6ECFF" stroke="#231F20" stroke-width="2" stroke-linejoin="bevel" stroke-miterlimit="10" points="450,18
		379.416,69.281 406.376,152.257 	"/>
	<polygon fill="#E6ECFF" stroke="#231F20" stroke-width="2" stroke-linejoin="bevel" stroke-miterlimit="10" points="
		340.583,69.281 270,18 199.416,69.281 313.623,152.257 	"/>
	<polygon fill="#78C60D" stroke="#231F20" stroke-width="2" stroke-linejoin="bevel" stroke-miterlimit="10" points="
		313.623,152.257 199.416,69.281 226.376,152.257 	"/>
	<polygon fill="#78C60D" stroke="#231F20" stroke-width="2" stroke-linejoin="bevel" stroke-miterlimit="10" points="
		19.416,393.281 46.376,476.257 90,342 	"/>
	<polygon fill="#E6ECFF" stroke="#231F20" stroke-width="2" stroke-linejoin="bevel" stroke-miterlimit="10" points="
		46.376,476.257 133.623,476.257 160.583,393.281 90,342 	"/>
	<polygon fill="#78C60D" stroke="#231F20" stroke-width="2" stroke-linejoin="bevel" stroke-miterlimit="10" points="
		586.376,476.257 700.583,393.281 630,342 	"/>
	<polygon fill="#E6ECFF" stroke="#231F20" stroke-width="2" stroke-linejoin="bevel" stroke-miterlimit="10" points="
		673.623,476.257 700.583,393.281 586.376,476.257 	"/>
	<polygon fill="#E6ECFF" stroke="#231F20" stroke-width="2" stroke-linejoin="bevel" stroke-miterlimit="10" points="
		559.416,393.281 586.376,476.257 630,342 	"/>
	<polygon fill="#E6ECFF" stroke="#231F20" stroke-width="2" stroke-linejoin="bevel" stroke-miterlimit="10" points="
		379.416,393.281 520.583,393.281 450,342 	"/>
	<polygon fill="#78C60D" stroke="#231F20" stroke-width="2" stroke-linejoin="bevel" stroke-miterlimit="10" points="
		493.623,476.257 520.583,393.281 379.416,393.281 	"/>
	<polygon fill="#E6ECFF" stroke="#231F20" stroke-width="2" stroke-linejoin="bevel" stroke-miterlimit="10" points="
		406.376,476.257 493.623,476.257 379.416,393.281 	"/>
	<polygon fill="#78C60D" stroke="#231F20" stroke-width="2" stroke-linejoin="bevel" stroke-miterlimit="10" points="
		313.623,476.257 340.583,393.281 226.376,476.257 	"/>
	<polygon fill="#E6ECFF" stroke="#231F20" stroke-width="2" stroke-linejoin="bevel" stroke-miterlimit="10" points="
		199.416,393.281 226.376,476.257 340.583,393.281 270,342 	"/>
</g>
</svg>
