<?xml version="1.0" encoding="UTF-8"?>
<svg xmlns="http://www.w3.org/2000/svg" xmlns:xlink="http://www.w3.org/1999/xlink"
     width="104" height="88" viewBox="-4 -84 104 88">
<defs>
</defs>
<path d="M0,0 L96,0" stroke-width="2" stroke="grey" />
<circle cx="0" cy="0" r="0.5" fill="grey" stroke-width="1" stroke="grey" />
<circle cx="96" cy="0" r="0.5" fill="grey" stroke-width="1" stroke="grey" />
<path d="M0,-16 L96,-16" stroke-width="2" stroke="grey" />
<circle cx="0" cy="-16" r="0.5" fill="grey" stroke-width="1" stroke="grey" />
<circle cx="96" cy="-16" r="0.5" fill="grey" stroke-width="1" stroke="grey" />
<path d="M0,-32 L96,-32" stroke-width="2" stroke="grey" />
<circle cx="0" cy="-32" r="0.5" fill="grey" stroke-width="1" stroke="grey" />
<circle cx="96" cy="-32" r="0.5" fill="grey" stroke-width="1" stroke="grey" />
<path d="M0,-48 L96,-48" stroke-width="2" stroke="grey" />
<circle cx="0" cy="-48" r="0.5" fill="grey" stroke-width="1" stroke="grey" />
<circle cx="96" cy="-48" r="0.5" fill="grey" stroke-width="1" stroke="grey" />
<path d="M0,-64 L96,-64" stroke-width="2" stroke="grey" />
<circle cx="0" cy="-64" r="0.5" fill="grey" stroke-width="1" stroke="grey" />
<circle cx="96" cy="-64" r="0.5" fill="grey" stroke-width="1" stroke="grey" />
<path d="M0,-80 L96,-80" stroke-width="2" stroke="grey" />
<circle cx="0" cy="-80" r="0.5" fill="grey" stroke-width="1" stroke="grey" />
<circle cx="96" cy="-80" r="0.5" fill="grey" stroke-width="1" stroke="grey" />
<path d="M0,0 L0,-80" stroke-width="2" stroke="grey" />
<circle cx="0" cy="0" r="0.5" fill="grey" stroke-width="1" stroke="grey" />
<circle cx="0" cy="-80" r="0.5" fill="grey" stroke-width="1" stroke="grey" />
<path d="M16,0 L16,-80" stroke-width="2" stroke="grey" />
<circle cx="16" cy="0" r="0.5" fill="grey" stroke-width="1" stroke="grey" />
<circle cx="16" cy="-80" r="0.5" fill="grey" stroke-width="1" stroke="grey" />
<path d="M32,0 L32,-80" stroke-width="2" stroke="grey" />
<circle cx="32" cy="0" r="0.5" fill="grey" stroke-width="1" stroke="grey" />
<circle cx="32" cy="-80" r="0.5" fill="grey" stroke-width="1" stroke="grey" />
<path d="M48,0 L48,-80" stroke-width="2" stroke="grey" />
<circle cx="48" cy="0" r="0.5" fill="grey" stroke-width="1" stroke="grey" />
<circle cx="48" cy="-80" r="0.5" fill="grey" stroke-width="1" stroke="grey" />
<path d="M64,0 L64,-80" stroke-width="2" stroke="grey" />
<circle cx="64" cy="0" r="0.5" fill="grey" stroke-width="1" stroke="grey" />
<circle cx="64" cy="-80" r="0.5" fill="grey" stroke-width="1" stroke="grey" />
<path d="M80,0 L80,-80" stroke-width="2" stroke="grey" />
<circle cx="80" cy="0" r="0.5" fill="grey" stroke-width="1" stroke="grey" />
<circle cx="80" cy="-80" r="0.5" fill="grey" stroke-width="1" stroke="grey" />
<path d="M96,0 L96,-80" stroke-width="2" stroke="grey" />
<circle cx="96" cy="0" r="0.5" fill="grey" stroke-width="1" stroke="grey" />
<circle cx="96" cy="-80" r="0.5" fill="grey" stroke-width="1" stroke="grey" />
<circle cx="0" cy="0" r="3" fill="red" stroke-width="2" stroke="red" />
<path d="M0,0 L16,-32" fill="none" stroke-width="4" stroke="red" />
<circle cx="16" cy="-32" r="3" fill="red" stroke-width="2" stroke="red" />
<path d="M16,-32 L32,-48" fill="none" stroke-width="4" stroke="red" />
<circle cx="32" cy="-48" r="3" fill="red" stroke-width="2" stroke="red" />
<path d="M32,-48 L48,-32" fill="none" stroke-width="4" stroke="red" />
<circle cx="48" cy="-32" r="3" fill="red" stroke-width="2" stroke="red" />
<path d="M48,-32 L64,-16" fill="none" stroke-width="4" stroke="red" />
<circle cx="64" cy="-16" r="3" fill="red" stroke-width="2" stroke="red" />
<path d="M64,-16 L80,-16" fill="none" stroke-width="4" stroke="red" />
<circle cx="80" cy="-16" r="3" fill="red" stroke-width="2" stroke="red" />
<path d="M80,-16 L96,0" fill="none" stroke-width="4" stroke="red" />
<circle cx="96" cy="0" r="3" fill="red" stroke-width="2" stroke="red" />
</svg>