<?xml version="1.0" encoding="UTF-8"?>
<svg xmlns="http://www.w3.org/2000/svg" xmlns:xlink="http://www.w3.org/1999/xlink"
     width="160" height="112" viewBox="-80 -104 160 112">
<defs>
</defs>
<circle cx="0" cy="-96" r="4" fill="red" stroke-width="2" stroke="red" />
<path d="M0,-96 L-70,-64" fill="none" stroke-width="4" stroke="red" />
<circle cx="-70" cy="-64" r="4" fill="red" stroke-width="2" stroke="red" />
<circle cx="-70" cy="-64" r="4" fill="red" stroke-width="2" stroke="red" />
<path d="M0,-96 L0,-64" fill="none" stroke-width="4" stroke="red" />
<circle cx="0" cy="-64" r="4" fill="red" stroke-width="2" stroke="red" />
<circle cx="0" cy="-64" r="4" fill="red" stroke-width="2" stroke="red" />
<path d="M0,-64 L-50,-32" fill="none" stroke-width="4" stroke="red" />
<circle cx="-50" cy="-32" r="4" fill="red" stroke-width="2" stroke="red" />
<circle cx="-50" cy="-32" r="4" fill="red" stroke-width="2" stroke="red" />
<path d="M0,-64 L-20,-32" fill="none" stroke-width="4" stroke="red" />
<circle cx="-20" cy="-32" r="4" fill="red" stroke-width="2" stroke="red" />
<circle cx="-20" cy="-32" r="4" fill="red" stroke-width="2" stroke="red" />
<path d="M-20,-32 L-30,0" fill="none" stroke-width="4" stroke="red" />
<circle cx="-30" cy="0" r="4" fill="red" stroke-width="2" stroke="red" />
<circle cx="-30" cy="0" r="4" fill="red" stroke-width="2" stroke="red" />
<path d="M-20,-32 L-10,0" fill="none" stroke-width="4" stroke="red" />
<circle cx="-10" cy="0" r="4" fill="red" stroke-width="2" stroke="red" />
<circle cx="-10" cy="0" r="4" fill="red" stroke-width="2" stroke="red" />
<path d="M0,-64 L10,-32" fill="none" stroke-width="4" stroke="red" />
<circle cx="10" cy="-32" r="4" fill="red" stroke-width="2" stroke="red" />
<circle cx="10" cy="-32" r="4" fill="red" stroke-width="2" stroke="red" />
<path d="M0,-64 L30,-32" fill="none" stroke-width="4" stroke="red" />
<circle cx="30" cy="-32" r="4" fill="red" stroke-width="2" stroke="red" />
<circle cx="30" cy="-32" r="4" fill="red" stroke-width="2" stroke="red" />
<path d="M0,-64 L50,-32" fill="none" stroke-width="4" stroke="red" />
<circle cx="50" cy="-32" r="4" fill="red" stroke-width="2" stroke="red" />
<circle cx="50" cy="-32" r="4" fill="red" stroke-width="2" stroke="red" />
<path d="M0,-96 L70,-64" fill="none" stroke-width="4" stroke="red" />
<circle cx="70" cy="-64" r="4" fill="red" stroke-width="2" stroke="red" />
<circle cx="70" cy="-64" r="4" fill="red" stroke-width="2" stroke="red" />
</svg>