<?xml version="1.0" encoding="UTF-8"?>
<svg xmlns="http://www.w3.org/2000/svg" xmlns:xlink="http://www.w3.org/1999/xlink"
     width="40" height="24" viewBox="-4 -20 40 24">
<defs>
</defs>
<path d="M0,0 L32,0" stroke-width="2" stroke="grey" />
<circle cx="0" cy="0" r="0.5" fill="grey" stroke-width="1" stroke="grey" />
<circle cx="32" cy="0" r="0.5" fill="grey" stroke-width="1" stroke="grey" />
<path d="M0,-16 L32,-16" stroke-width="2" stroke="grey" />
<circle cx="0" cy="-16" r="0.5" fill="grey" stroke-width="1" stroke="grey" />
<circle cx="32" cy="-16" r="0.5" fill="grey" stroke-width="1" stroke="grey" />
<path d="M0,0 L0,-16" stroke-width="2" stroke="grey" />
<circle cx="0" cy="0" r="0.5" fill="grey" stroke-width="1" stroke="grey" />
<circle cx="0" cy="-16" r="0.5" fill="grey" stroke-width="1" stroke="grey" />
<path d="M16,0 L16,-16" stroke-width="2" stroke="grey" />
<circle cx="16" cy="0" r="0.5" fill="grey" stroke-width="1" stroke="grey" />
<circle cx="16" cy="-16" r="0.5" fill="grey" stroke-width="1" stroke="grey" />
<path d="M32,0 L32,-16" stroke-width="2" stroke="grey" />
<circle cx="32" cy="0" r="0.5" fill="grey" stroke-width="1" stroke="grey" />
<circle cx="32" cy="-16" r="0.5" fill="grey" stroke-width="1" stroke="grey" />
<circle cx="0" cy="0" r="3" fill="red" stroke-width="2" stroke="red" />
<path d="M0,0 L16,-16" fill="none" stroke-width="4" stroke="red" />
<circle cx="16" cy="-16" r="3" fill="red" stroke-width="2" stroke="red" />
<path d="M16,-16 L32,0" fill="none" stroke-width="4" stroke="red" />
<circle cx="32" cy="0" r="3" fill="red" stroke-width="2" stroke="red" />
</svg>