<?xml version="1.0" encoding="UTF-8"?>
<svg xmlns="http://www.w3.org/2000/svg" xmlns:xlink="http://www.w3.org/1999/xlink"
     width="168" height="152" viewBox="-4 -148 168 152">
<defs>
</defs>
<path d="M0,0 L160,0" stroke-width="2" stroke="grey" />
<circle cx="0" cy="0" r="0.5" fill="grey" stroke-width="1" stroke="grey" />
<circle cx="160" cy="0" r="0.5" fill="grey" stroke-width="1" stroke="grey" />
<path d="M0,-16 L160,-16" stroke-width="2" stroke="grey" />
<circle cx="0" cy="-16" r="0.5" fill="grey" stroke-width="1" stroke="grey" />
<circle cx="160" cy="-16" r="0.5" fill="grey" stroke-width="1" stroke="grey" />
<path d="M0,-32 L160,-32" stroke-width="2" stroke="grey" />
<circle cx="0" cy="-32" r="0.5" fill="grey" stroke-width="1" stroke="grey" />
<circle cx="160" cy="-32" r="0.5" fill="grey" stroke-width="1" stroke="grey" />
<path d="M0,-48 L160,-48" stroke-width="2" stroke="grey" />
<circle cx="0" cy="-48" r="0.5" fill="grey" stroke-width="1" stroke="grey" />
<circle cx="160" cy="-48" r="0.5" fill="grey" stroke-width="1" stroke="grey" />
<path d="M0,-64 L160,-64" stroke-width="2" stroke="grey" />
<circle cx="0" cy="-64" r="0.5" fill="grey" stroke-width="1" stroke="grey" />
<circle cx="160" cy="-64" r="0.5" fill="grey" stroke-width="1" stroke="grey" />
<path d="M0,-80 L160,-80" stroke-width="2" stroke="grey" />
<circle cx="0" cy="-80" r="0.5" fill="grey" stroke-width="1" stroke="grey" />
<circle cx="160" cy="-80" r="0.5" fill="grey" stroke-width="1" stroke="grey" />
<path d="M0,-96 L160,-96" stroke-width="2" stroke="grey" />
<circle cx="0" cy="-96" r="0.5" fill="grey" stroke-width="1" stroke="grey" />
<circle cx="160" cy="-96" r="0.5" fill="grey" stroke-width="1" stroke="grey" />
<path d="M0,-112 L160,-112" stroke-width="2" stroke="grey" />
<circle cx="0" cy="-112" r="0.5" fill="grey" stroke-width="1" stroke="grey" />
<circle cx="160" cy="-112" r="0.5" fill="grey" stroke-width="1" stroke="grey" />
<path d="M0,-128 L160,-128" stroke-width="2" stroke="grey" />
<circle cx="0" cy="-128" r="0.5" fill="grey" stroke-width="1" stroke="grey" />
<circle cx="160" cy="-128" r="0.5" fill="grey" stroke-width="1" stroke="grey" />
<path d="M0,-144 L160,-144" stroke-width="2" stroke="grey" />
<circle cx="0" cy="-144" r="0.5" fill="grey" stroke-width="1" stroke="grey" />
<circle cx="160" cy="-144" r="0.5" fill="grey" stroke-width="1" stroke="grey" />
<path d="M0,0 L0,-144" stroke-width="2" stroke="grey" />
<circle cx="0" cy="0" r="0.5" fill="grey" stroke-width="1" stroke="grey" />
<circle cx="0" cy="-144" r="0.5" fill="grey" stroke-width="1" stroke="grey" />
<path d="M16,0 L16,-144" stroke-width="2" stroke="grey" />
<circle cx="16" cy="0" r="0.5" fill="grey" stroke-width="1" stroke="grey" />
<circle cx="16" cy="-144" r="0.5" fill="grey" stroke-width="1" stroke="grey" />
<path d="M32,0 L32,-144" stroke-width="2" stroke="grey" />
<circle cx="32" cy="0" r="0.5" fill="grey" stroke-width="1" stroke="grey" />
<circle cx="32" cy="-144" r="0.5" fill="grey" stroke-width="1" stroke="grey" />
<path d="M48,0 L48,-144" stroke-width="2" stroke="grey" />
<circle cx="48" cy="0" r="0.5" fill="grey" stroke-width="1" stroke="grey" />
<circle cx="48" cy="-144" r="0.5" fill="grey" stroke-width="1" stroke="grey" />
<path d="M64,0 L64,-144" stroke-width="2" stroke="grey" />
<circle cx="64" cy="0" r="0.5" fill="grey" stroke-width="1" stroke="grey" />
<circle cx="64" cy="-144" r="0.5" fill="grey" stroke-width="1" stroke="grey" />
<path d="M80,0 L80,-144" stroke-width="2" stroke="grey" />
<circle cx="80" cy="0" r="0.5" fill="grey" stroke-width="1" stroke="grey" />
<circle cx="80" cy="-144" r="0.5" fill="grey" stroke-width="1" stroke="grey" />
<path d="M96,0 L96,-144" stroke-width="2" stroke="grey" />
<circle cx="96" cy="0" r="0.5" fill="grey" stroke-width="1" stroke="grey" />
<circle cx="96" cy="-144" r="0.5" fill="grey" stroke-width="1" stroke="grey" />
<path d="M112,0 L112,-144" stroke-width="2" stroke="grey" />
<circle cx="112" cy="0" r="0.5" fill="grey" stroke-width="1" stroke="grey" />
<circle cx="112" cy="-144" r="0.5" fill="grey" stroke-width="1" stroke="grey" />
<path d="M128,0 L128,-144" stroke-width="2" stroke="grey" />
<circle cx="128" cy="0" r="0.5" fill="grey" stroke-width="1" stroke="grey" />
<circle cx="128" cy="-144" r="0.5" fill="grey" stroke-width="1" stroke="grey" />
<path d="M144,0 L144,-144" stroke-width="2" stroke="grey" />
<circle cx="144" cy="0" r="0.5" fill="grey" stroke-width="1" stroke="grey" />
<circle cx="144" cy="-144" r="0.5" fill="grey" stroke-width="1" stroke="grey" />
<path d="M160,0 L160,-144" stroke-width="2" stroke="grey" />
<circle cx="160" cy="0" r="0.5" fill="grey" stroke-width="1" stroke="grey" />
<circle cx="160" cy="-144" r="0.5" fill="grey" stroke-width="1" stroke="grey" />
<circle cx="0" cy="0" r="3" fill="red" stroke-width="2" stroke="red" />
<path d="M0,0 L16,-32" fill="none" stroke-width="4" stroke="red" />
<circle cx="16" cy="-32" r="3" fill="red" stroke-width="2" stroke="red" />
<path d="M16,-32 L32,-16" fill="none" stroke-width="4" stroke="red" />
<circle cx="32" cy="-16" r="3" fill="red" stroke-width="2" stroke="red" />
<path d="M32,-16 L48,-80" fill="none" stroke-width="4" stroke="red" />
<circle cx="48" cy="-80" r="3" fill="red" stroke-width="2" stroke="red" />
<path d="M48,-80 L64,-64" fill="none" stroke-width="4" stroke="red" />
<circle cx="64" cy="-64" r="3" fill="red" stroke-width="2" stroke="red" />
<path d="M64,-64 L80,-80" fill="none" stroke-width="4" stroke="red" />
<circle cx="80" cy="-80" r="3" fill="red" stroke-width="2" stroke="red" />
<path d="M80,-80 L96,-64" fill="none" stroke-width="4" stroke="red" />
<circle cx="96" cy="-64" r="3" fill="red" stroke-width="2" stroke="red" />
<path d="M96,-64 L112,-48" fill="none" stroke-width="4" stroke="red" />
<circle cx="112" cy="-48" r="3" fill="red" stroke-width="2" stroke="red" />
<path d="M112,-48 L128,-32" fill="none" stroke-width="4" stroke="red" />
<circle cx="128" cy="-32" r="3" fill="red" stroke-width="2" stroke="red" />
<path d="M128,-32 L144,-16" fill="none" stroke-width="4" stroke="red" />
<circle cx="144" cy="-16" r="3" fill="red" stroke-width="2" stroke="red" />
<path d="M144,-16 L160,0" fill="none" stroke-width="4" stroke="red" />
<circle cx="160" cy="0" r="3" fill="red" stroke-width="2" stroke="red" />
</svg>