<?xml version="1.0" encoding="UTF-8"?>
<svg xmlns="http://www.w3.org/2000/svg" xmlns:xlink="http://www.w3.org/1999/xlink"
     width="196.0" height="110" viewBox="-122.0 -15 196.0 110">
<defs>
</defs>
<path d="M0,0 L-64,20" stroke-width="4" stroke="grey" />
<path d="M-64,20 L-96,40" stroke-width="4" stroke="grey" />
<path d="M-96,40 L-109,56" stroke-width="2" stroke="grey" />
<rect x="-112" y="53" width="6" height="6" fill="white" stroke-width="2" stroke="grey" />
<path d="M-96,40 L-84,56" stroke-width="2" stroke="grey" />
<rect x="-87" y="53" width="6" height="6" fill="white" stroke-width="2" stroke="grey" />
<circle cx="-96" cy="40" r="6" fill="red" stroke-width="3" stroke="grey" />
<path d="M-64,20 L-32,40" stroke-width="4" stroke="grey" />
<path d="M-32,40 L-45,56" stroke-width="2" stroke="grey" />
<rect x="-48" y="53" width="6" height="6" fill="white" stroke-width="2" stroke="grey" />
<path d="M-32,40 L-20,56" stroke-width="2" stroke="grey" />
<rect x="-23" y="53" width="6" height="6" fill="white" stroke-width="2" stroke="grey" />
<circle cx="-32" cy="40" r="6" fill="red" stroke-width="3" stroke="grey" />
<circle cx="-64" cy="20" r="6" fill="red" stroke-width="3" stroke="grey" />
<path d="M0,0 L51,16" stroke-width="2" stroke="grey" />
<rect x="48" y="13" width="6" height="6" fill="white" stroke-width="2" stroke="grey" />
<circle cx="0" cy="0" r="6" fill="red" stroke-width="3" stroke="grey" />
</svg>