<?xml version="1.0" encoding="UTF-8"?>
<svg xmlns="http://www.w3.org/2000/svg" xmlns:xlink="http://www.w3.org/1999/xlink"
     width="180.0" height="110" viewBox="-106.0 -15 180.0 110">
<defs>
</defs>
<path d="M0,0 L-64,20" stroke-width="4" stroke="grey" />
<path d="M-64,20 L-90,36" stroke-width="2" stroke="grey" />
<rect x="-93" y="33" width="6" height="6" fill="white" stroke-width="2" stroke="grey" />
<path d="M-64,20 L-32,40" stroke-width="4" stroke="grey" />
<path d="M-32,40 L-48,60" stroke-width="4" stroke="grey" />
<path d="M-48,60 L-55,76" stroke-width="2" stroke="grey" />
<rect x="-58" y="73" width="6" height="6" fill="white" stroke-width="2" stroke="grey" />
<path d="M-48,60 L-42,76" stroke-width="2" stroke="grey" />
<rect x="-45" y="73" width="6" height="6" fill="white" stroke-width="2" stroke="grey" />
<circle cx="-48" cy="60" r="6" fill="red" stroke-width="3" stroke="grey" />
<path d="M-32,40 L-20,56" stroke-width="2" stroke="grey" />
<rect x="-23" y="53" width="6" height="6" fill="white" stroke-width="2" stroke="grey" />
<circle cx="-32" cy="40" r="6" fill="red" stroke-width="3" stroke="grey" />
<circle cx="-64" cy="20" r="6" fill="red" stroke-width="3" stroke="grey" />
<path d="M0,0 L51,16" stroke-width="2" stroke="grey" />
<rect x="48" y="13" width="6" height="6" fill="white" stroke-width="2" stroke="grey" />
<circle cx="0" cy="0" r="6" fill="red" stroke-width="3" stroke="grey" />
</svg>