<?xml version="1.0" encoding="UTF-8"?>
<svg xmlns="http://www.w3.org/2000/svg" xmlns:xlink="http://www.w3.org/1999/xlink"
     width="180.0" height="110" viewBox="-74 -15 180.0 110">
<defs>
</defs>
<path d="M0,0 L-52,16" stroke-width="2" stroke="grey" />
<rect x="-55" y="13" width="6" height="6" fill="white" stroke-width="2" stroke="grey" />
<path d="M0,0 L64,20" stroke-width="4" stroke="grey" />
<path d="M64,20 L32,40" stroke-width="4" stroke="grey" />
<path d="M32,40 L16,60" stroke-width="4" stroke="grey" />
<path d="M16,60 L9,76" stroke-width="2" stroke="grey" />
<rect x="6" y="73" width="6" height="6" fill="white" stroke-width="2" stroke="grey" />
<path d="M16,60 L22,76" stroke-width="2" stroke="grey" />
<rect x="19" y="73" width="6" height="6" fill="white" stroke-width="2" stroke="grey" />
<circle cx="16" cy="60" r="6" fill="red" stroke-width="3" stroke="grey" />
<path d="M32,40 L44,56" stroke-width="2" stroke="grey" />
<rect x="41" y="53" width="6" height="6" fill="white" stroke-width="2" stroke="grey" />
<circle cx="32" cy="40" r="6" fill="red" stroke-width="3" stroke="grey" />
<path d="M64,20 L89,36" stroke-width="2" stroke="grey" />
<rect x="86" y="33" width="6" height="6" fill="white" stroke-width="2" stroke="grey" />
<circle cx="64" cy="20" r="6" fill="red" stroke-width="3" stroke="grey" />
<circle cx="0" cy="0" r="6" fill="red" stroke-width="3" stroke="grey" />
</svg>