<?xml version="1.0" encoding="UTF-8"?>
<svg xmlns="http://www.w3.org/2000/svg" xmlns:xlink="http://www.w3.org/1999/xlink"
     width="136" height="76" viewBox="-8 -68 136 76">
<defs>
</defs>
<path d="M0,0 L120,0" stroke-width="2" stroke="grey" />
<circle cx="0" cy="0" r="0.5" fill="grey" stroke-width="1" stroke="grey" />
<circle cx="120" cy="0" r="0.5" fill="grey" stroke-width="1" stroke="grey" />
<path d="M0,-20 L120,-20" stroke-width="2" stroke="grey" />
<circle cx="0" cy="-20" r="0.5" fill="grey" stroke-width="1" stroke="grey" />
<circle cx="120" cy="-20" r="0.5" fill="grey" stroke-width="1" stroke="grey" />
<path d="M0,-40 L120,-40" stroke-width="2" stroke="grey" />
<circle cx="0" cy="-40" r="0.5" fill="grey" stroke-width="1" stroke="grey" />
<circle cx="120" cy="-40" r="0.5" fill="grey" stroke-width="1" stroke="grey" />
<path d="M0,-60 L120,-60" stroke-width="2" stroke="grey" />
<circle cx="0" cy="-60" r="0.5" fill="grey" stroke-width="1" stroke="grey" />
<circle cx="120" cy="-60" r="0.5" fill="grey" stroke-width="1" stroke="grey" />
<path d="M0,0 L0,-60" stroke-width="2" stroke="grey" />
<circle cx="0" cy="0" r="0.5" fill="grey" stroke-width="1" stroke="grey" />
<circle cx="0" cy="-60" r="0.5" fill="grey" stroke-width="1" stroke="grey" />
<path d="M20,0 L20,-60" stroke-width="2" stroke="grey" />
<circle cx="20" cy="0" r="0.5" fill="grey" stroke-width="1" stroke="grey" />
<circle cx="20" cy="-60" r="0.5" fill="grey" stroke-width="1" stroke="grey" />
<path d="M40,0 L40,-60" stroke-width="2" stroke="grey" />
<circle cx="40" cy="0" r="0.5" fill="grey" stroke-width="1" stroke="grey" />
<circle cx="40" cy="-60" r="0.5" fill="grey" stroke-width="1" stroke="grey" />
<path d="M60,0 L60,-60" stroke-width="2" stroke="grey" />
<circle cx="60" cy="0" r="0.5" fill="grey" stroke-width="1" stroke="grey" />
<circle cx="60" cy="-60" r="0.5" fill="grey" stroke-width="1" stroke="grey" />
<path d="M80,0 L80,-60" stroke-width="2" stroke="grey" />
<circle cx="80" cy="0" r="0.5" fill="grey" stroke-width="1" stroke="grey" />
<circle cx="80" cy="-60" r="0.5" fill="grey" stroke-width="1" stroke="grey" />
<path d="M100,0 L100,-60" stroke-width="2" stroke="grey" />
<circle cx="100" cy="0" r="0.5" fill="grey" stroke-width="1" stroke="grey" />
<circle cx="100" cy="-60" r="0.5" fill="grey" stroke-width="1" stroke="grey" />
<path d="M120,0 L120,-60" stroke-width="2" stroke="grey" />
<circle cx="120" cy="0" r="0.5" fill="grey" stroke-width="1" stroke="grey" />
<circle cx="120" cy="-60" r="0.5" fill="grey" stroke-width="1" stroke="grey" />
<circle cx="0" cy="0" r="3" fill="red" stroke-width="3" stroke="red" />
<path d="M0,0 L20,-20" fill="none" stroke-width="4" stroke="red" />
<circle cx="20" cy="-20" r="3" fill="red" stroke-width="3" stroke="red" />
<path d="M20,-20 L40,0" fill="none" stroke-width="4" stroke="red" />
<circle cx="40" cy="0" r="3" fill="red" stroke-width="3" stroke="red" />
<path d="M40,0 L60,-20" fill="none" stroke-width="4" stroke="red" />
<circle cx="60" cy="-20" r="3" fill="red" stroke-width="3" stroke="red" />
<path d="M60,-20 L80,-40" fill="none" stroke-width="4" stroke="red" />
<circle cx="80" cy="-40" r="3" fill="red" stroke-width="3" stroke="red" />
<path d="M80,-40 L100,-20" fill="none" stroke-width="4" stroke="red" />
<circle cx="100" cy="-20" r="3" fill="red" stroke-width="3" stroke="red" />
<path d="M100,-20 L120,0" fill="none" stroke-width="4" stroke="red" />
<circle cx="120" cy="0" r="3" fill="red" stroke-width="3" stroke="red" />
</svg>